<?xml version="1.0" encoding="utf-8"?>
<!-- Generator: Adobe Illustrator 22.1.0, SVG Export Plug-In . SVG Version: 6.00 Build 0)  -->
<svg version="1.1" id="Capa_1" xmlns="http://www.w3.org/2000/svg" xmlns:xlink="http://www.w3.org/1999/xlink" x="0px" y="0px"
	 viewBox="0 0 100 100" style="enable-background:new 0 0 100 100;" xml:space="preserve">
<style type="text/css">
	.st0{fill:none;stroke:#58BDEC;stroke-width:3;stroke-linecap:round;stroke-linejoin:round;stroke-miterlimit:10;}
	.st1{fill:#58BDEC;}
</style>
<path class="st0" d="M97.2,79.1c0,3.3-2.5,5.9-5.6,5.9h-82C6.5,85,4,82.3,4,79.1V20.9C4,17.7,6.5,15,9.6,15h82.1
	c3.1,0,5.6,2.6,5.6,5.9L97.2,79.1z"/>
<g>
	<path class="st1" d="M68.7,34.6l10.8,18.8l10.9,18.8H47l10.9-18.8C57.9,53.4,68.7,34.6,68.7,34.6z"/>
	<path class="st1" d="M33.8,44.4l8,13.9l8,13.9h-32l8-13.9L33.8,44.4"/>
	<circle class="st1" cx="19.3" cy="33.5" r="7.7"/>
</g>
</svg>
