<?xml version="1.0" encoding="utf-8"?>
<!-- Generator: Adobe Illustrator 22.1.0, SVG Export Plug-In . SVG Version: 6.00 Build 0)  -->
<svg version="1.1" id="Layer_1" xmlns="http://www.w3.org/2000/svg" xmlns:xlink="http://www.w3.org/1999/xlink" x="0px" y="0px"
	 viewBox="0 0 100 100" style="enable-background:new 0 0 100 100;" xml:space="preserve">
<style type="text/css">
	.st0{fill:#58BDEC;}
	.st1{fill:#EAEAEA;}
	.st2{fill:#FFFFFF;}
	.st3{fill:none;stroke:#58BDEC;stroke-miterlimit:10;}
</style>
<circle class="st0" cx="49.6" cy="50" r="48"/>
<g>
	<path class="st1" d="M59,36.2h12.1L55.8,21.4v11.5C55.8,34.7,57.2,36.2,59,36.2z"/>
	<path class="st2" d="M59,36.2c-1.8,0-3.2-1.4-3.2-3.2V21.4H31.4c-1.8,0-3.2,1.4-3.2,3.2v50.7c0,1.8,1.4,3.2,3.2,3.2h36.4
		c1.8,0,3.2-1.4,3.2-3.2V36.2H59z"/>
</g>
<line class="st3" x1="37.4" y1="58.2" x2="61" y2="58.2"/>
<line class="st3" x1="37.4" y1="48.7" x2="61" y2="48.7"/>
<line class="st3" x1="37.4" y1="68.1" x2="61" y2="68.1"/>
</svg>
