<?xml version="1.0" encoding="utf-8"?>
<!-- Generator: Adobe Illustrator 22.1.0, SVG Export Plug-In . SVG Version: 6.00 Build 0)  -->
<svg version="1.1" id="Layer_1" xmlns="http://www.w3.org/2000/svg" xmlns:xlink="http://www.w3.org/1999/xlink" x="0px" y="0px"
	 viewBox="0 0 100 100" style="enable-background:new 0 0 100 100;" xml:space="preserve">
<style type="text/css">
	.st0{fill:#58BDEC;}
	.st1{fill:#FFFFFF;}
</style>
<circle class="st0" cx="50" cy="50" r="48.4"/>
<path class="st1" d="M79.6,68.5c0,2.1-1.6,3.7-3.6,3.7H23.9c-2,0-3.6-1.8-3.6-3.7v-37c0-2.1,1.6-3.7,3.6-3.7h52.3
	c2,0,3.6,1.6,3.6,3.7L79.6,68.5z"/>
<polygon class="st0" points="69.4,57.8 66.3,59.2 63.3,57.8 59.6,65.8 62.2,65.4 63.6,67.7 66.3,61.7 69.1,67.7 70.4,65.4 
	73.1,65.8 "/>
<circle class="st0" cx="66.3" cy="54" r="8"/>
<path class="st1" d="M66.3,60.6c-3.7,0-6.6-2.9-6.6-6.6s2.9-6.6,6.6-6.6s6.6,2.9,6.6,6.6S70,60.6,66.3,60.6z"/>
<path class="st0" d="M66.3,59.1c-2.8,0-5.1-2.3-5.1-5.1s2.3-5.1,5.1-5.1s5.1,2.3,5.1,5.1C71.5,56.8,69.1,59.1,66.3,59.1z"/>
</svg>
