<?xml version="1.0" encoding="utf-8"?>
<!-- Generator: Adobe Illustrator 22.1.0, SVG Export Plug-In . SVG Version: 6.00 Build 0)  -->
<svg version="1.1" id="Layer_1" xmlns="http://www.w3.org/2000/svg" xmlns:xlink="http://www.w3.org/1999/xlink" x="0px" y="0px"
	 viewBox="0 0 100 100" style="enable-background:new 0 0 100 100;" xml:space="preserve">
<style type="text/css">
	.st0{fill:#58BDEC;}
	.st1{fill:#FFFFFF;}
	.st2{clip-path:url(#SVGID_2_);fill:#58BDEC;}
</style>
<circle class="st0" cx="50" cy="50" r="48.4"/>
<path class="st1" d="M79.6,68.5c0,2.1-1.6,3.7-3.6,3.7H23.9c-2,0-3.6-1.8-3.6-3.7v-37c0-2.1,1.6-3.7,3.6-3.7h52.3
	c2,0,3.6,1.6,3.6,3.7L79.6,68.5z"/>
<g>
	<defs>
		<rect id="SVGID_1_" x="56.9" y="38.4" width="17.5" height="31.5"/>
	</defs>
	<clipPath id="SVGID_2_">
		<use xlink:href="#SVGID_1_"  style="overflow:visible;"/>
	</clipPath>
	<path class="st2" d="M72.1,50.9c-0.4,0-0.8,0.2-1,0.5c0-0.1,0-0.2,0-0.2c0-1.4-0.7-2.2-1.9-2.2c-0.5,0-0.9,0.1-1.2,0.3
		c-0.2-0.6-0.7-1.3-1.7-1.3c-0.5,0-1,0.2-1.3,0.4c0-1.6,0-3.2,0-3.3c0-0.6-0.7-1.6-1.9-1.6c-1.1,0-1.6,1-1.8,1.6c0,0,0,0.1,0,0.1
		L61,52.8c-0.4-0.8-1.1-1.6-1.6-1.9c-0.6-0.3-1.5-0.1-2.1,0.4c-0.5,0.5-0.7,1.1-0.4,1.8c0.2,0.6,0.4,1.2,0.5,2c0.2,1,0.5,2.2,1,3.6
		c0.9,2.4,3.5,4.8,4.3,5.5v1.8c0,1.8,1.4,3.2,3.2,3.2h3.5c1.8,0,3.2-1.4,3.2-3.2V64c0.9-1.2,1.4-3.4,1.5-3.5c0,0,0-0.1,0-0.1v-7.4
		C74.1,51.7,73.3,50.9,72.1,50.9L72.1,50.9z M73,60.2c-0.2,0.7-0.7,2.4-1.3,3.2c-0.1,0.1-0.1,0.2-0.1,0.3v2.3c0,1.2-0.9,2.1-2.1,2.1
		H66c-1.2,0-2.1-0.9-2.1-2.1v-2c0-0.2-0.1-0.3-0.2-0.4c0,0-3.3-2.8-4.1-5.2c-0.5-1.4-0.7-2.5-0.9-3.5c-0.2-0.8-0.3-1.5-0.6-2.2
		c-0.1-0.3,0-0.5,0.1-0.6c0.2-0.2,0.6-0.3,0.8-0.3c0,0,0.1,0,0.1,0c0.4,0.2,1.2,1.4,1.5,2.3c0.1,0.4,0.1,0.7,0.2,1
		c0.1,0.6,0.1,1.1,0.5,1.3c0.2,0.1,0.4,0.2,0.6,0.1c0.2-0.1,0.3-0.3,0.3-0.5l0.4-10.9c0.1-0.2,0.3-0.8,0.8-0.8
		c0.6,0,0.8,0.6,0.8,0.6c0,0.3,0,6.5,0,6.5c0,0.3,0.2,0.5,0.5,0.5c0.3,0,0.5-0.2,0.6-0.5l0.2-2c0.1-0.2,0.4-0.5,1-0.5
		c0.5,0,0.6,0.4,0.7,0.7l0.3,2.2c0,0.3,0.3,0.5,0.6,0.5c0.3,0,0.5-0.3,0.5-0.6l0-1.4c0.1-0.1,0.2-0.4,0.8-0.4c0.7,0,0.8,0.6,0.8,1.2
		c0,0.7,0.3,2.3,0.3,2.5c0,0.3,0.3,0.5,0.6,0.4c0.3,0,0.5-0.2,0.5-0.5c0.1-0.8,0.4-1.7,0.7-1.7c0.8,0,0.9,0.5,0.9,1L73,60.2z
		 M73,60.2"/>
</g>
<path class="st0" d="M66,44.7c-0.1,0.3,0.1,0.6,0.4,0.6l1.6,0.4c0,0,0.1,0,0.1,0c0.2,0,0.5-0.2,0.5-0.4c0.1-0.3-0.1-0.6-0.4-0.6
	l-1.6-0.4C66.3,44.2,66,44.4,66,44.7L66,44.7z M66,44.7"/>
<path class="st0" d="M63.4,41.4c0.3,0,0.5-0.2,0.5-0.5v-1.6c0-0.3-0.2-0.5-0.5-0.5c-0.3,0-0.5,0.2-0.5,0.5v1.6
	C62.8,41.1,63.1,41.4,63.4,41.4L63.4,41.4z M63.4,41.4"/>
<path class="st0" d="M65.9,42.6c0.1,0,0.2,0,0.3-0.1l1.3-1c0.2-0.2,0.3-0.5,0.1-0.8c-0.2-0.2-0.5-0.3-0.8-0.1l-1.3,1
	c-0.2,0.2-0.3,0.5-0.1,0.8C65.6,42.5,65.7,42.6,65.9,42.6L65.9,42.6z M65.9,42.6"/>
<path class="st0" d="M60.5,42.5c0.1,0.1,0.2,0.1,0.3,0.1c0.2,0,0.3-0.1,0.4-0.2c0.2-0.2,0.2-0.6-0.1-0.8l-1.3-1
	c-0.2-0.2-0.6-0.2-0.8,0.1c-0.2,0.2-0.2,0.6,0.1,0.8L60.5,42.5z M60.5,42.5"/>
<path class="st0" d="M58.6,45.7c0,0,0.1,0,0.1,0l1.6-0.4c0.3-0.1,0.5-0.4,0.4-0.6c-0.1-0.3-0.4-0.5-0.6-0.4l-1.6,0.4
	c-0.3,0.1-0.5,0.4-0.4,0.6C58.2,45.5,58.4,45.7,58.6,45.7L58.6,45.7z M58.6,45.7"/>
</svg>
